# Blender v2.79 (sub 0) OBJ File: 'player.blend'
# www.blender.org
mtllib player.mtl
o Cube
v 0.000000 0.000000 0.000000
v 0.000000 0.000000 0.500000
v -0.200000 0.000000 0.500000
v -0.200000 0.000000 -0.000000
v -0.012575 1.725231 0.175007
v -0.012576 1.725231 0.306889
v -0.187957 1.725231 0.306889
v -0.187957 1.725231 0.175006
v -0.012575 1.584769 0.175006
v -0.012575 1.584769 0.306889
v -0.187957 1.584769 0.306889
v -0.187956 1.584769 0.175006
v -0.053702 1.500000 0.190445
v -0.053702 1.500000 0.299569
v -0.150354 1.500000 0.299569
v -0.150354 1.500000 0.190445
v -0.000000 1.490000 -0.000000
v 0.000000 1.490000 0.500000
v -0.200000 1.490000 0.500000
v -0.200000 1.490000 -0.000000
v 0.000000 0.000000 0.000000
v 0.000000 0.000000 0.000000
v 0.000000 0.000000 0.500000
v 0.000000 0.000000 0.500000
v -0.200000 0.000000 -0.000000
v -0.200000 0.000000 -0.000000
v -0.012575 1.584769 0.175006
v -0.012575 1.584769 0.175006
v -0.012575 1.584769 0.175006
v -0.012575 1.725231 0.175007
v -0.012575 1.725231 0.175007
v -0.200000 0.000000 0.500000
v -0.200000 0.000000 0.500000
v -0.012575 1.584769 0.306889
v -0.012575 1.584769 0.306889
v -0.012575 1.584769 0.306889
v -0.012576 1.725231 0.306889
v -0.012576 1.725231 0.306889
v -0.187957 1.584769 0.306889
v -0.187957 1.584769 0.306889
v -0.187957 1.584769 0.306889
v -0.187957 1.725231 0.306889
v -0.187957 1.725231 0.306889
v -0.187956 1.584769 0.175006
v -0.187956 1.584769 0.175006
v -0.187956 1.584769 0.175006
v -0.187957 1.725231 0.175006
v -0.187957 1.725231 0.175006
v -0.053702 1.500000 0.190445
v -0.053702 1.500000 0.190445
v -0.053702 1.500000 0.190445
v -0.053702 1.500000 0.299569
v -0.053702 1.500000 0.299569
v -0.053702 1.500000 0.299569
v -0.150354 1.500000 0.299569
v -0.150354 1.500000 0.299569
v -0.150354 1.500000 0.299569
v -0.150354 1.500000 0.190445
v -0.150354 1.500000 0.190445
v -0.150354 1.500000 0.190445
v -0.000000 1.490000 -0.000000
v -0.000000 1.490000 -0.000000
v -0.000000 1.490000 -0.000000
v 0.000000 1.490000 0.500000
v 0.000000 1.490000 0.500000
v 0.000000 1.490000 0.500000
v -0.200000 1.490000 0.500000
v -0.200000 1.490000 0.500000
v -0.200000 1.490000 0.500000
v -0.200000 1.490000 -0.000000
v -0.200000 1.490000 -0.000000
v -0.200000 1.490000 -0.000000
vt 0.295803 0.999701
vt 0.000299 0.881499
vt 0.295803 0.881499
vt 0.830104 0.477978
vt 0.933756 0.400034
vt 0.933756 0.477978
vt 0.908048 0.561590
vt 0.830104 0.478576
vt 0.908048 0.478576
vt 0.933756 0.315824
vt 0.830104 0.232809
vt 0.933756 0.232809
vt 0.830104 0.562189
vt 0.913118 0.640132
vt 0.830104 0.640132
vt 0.711304 0.880900
vt 0.829506 0.000299
vt 0.829506 0.880900
vt 0.933756 0.399436
vt 0.830104 0.316422
vt 0.933756 0.316422
vt 0.830104 0.799418
vt 0.898923 0.854225
vt 0.834430 0.854225
vt 0.909449 0.692252
vt 0.830104 0.742537
vt 0.852327 0.692252
vt 0.898923 0.743135
vt 0.830104 0.798820
vt 0.834430 0.743136
vt 0.888008 0.881499
vt 0.710961 0.913783
vt 0.592504 0.881499
vt 0.861843 0.000299
vt 0.948306 0.118903
vt 0.830104 0.118903
vt 0.414858 0.881499
vt 0.591906 0.911430
vt 0.296402 0.911430
vt 0.909449 0.691654
vt 0.830104 0.640730
vt 0.933756 0.640730
vt 0.295803 0.880901
vt 0.000299 0.000299
vt 0.295804 0.000299
vt 0.710706 0.880901
vt 0.592504 0.000299
vt 0.710706 0.000299
vt 0.591906 0.880901
vt 0.296402 0.000299
vt 0.591906 0.000299
vt 0.916567 0.119501
vt 0.830104 0.232211
vt 0.859445 0.119501
vt 0.000299 0.999701
vt 0.830104 0.400034
vt 0.830104 0.561590
vt 0.830104 0.315824
vt 0.913118 0.562189
vt 0.711304 0.000299
vt 0.830104 0.399436
vt 0.908048 0.799418
vt 0.933756 0.742537
vt 0.908048 0.798820
vt 0.775453 0.913783
vt 0.918965 0.000299
vt 0.479351 0.881499
vt 0.852327 0.691654
vt 0.000299 0.880901
vt 0.592504 0.880901
vt 0.296402 0.880901
vt 0.948305 0.232211
vn 0.0000 -1.0000 0.0000
vn 0.0000 1.0000 0.0000
vn 1.0000 -0.0000 -0.0000
vn 0.0000 -0.0000 1.0000
vn -1.0000 -0.0000 -0.0000
vn 0.0000 -0.0000 -1.0000
vn -0.9141 -0.4055 -0.0000
vn 0.0000 -0.0860 0.9963
vn 0.8997 -0.4365 0.0000
vn 0.1831 0.9831 0.0000
vn -0.0000 0.9988 0.0498
vn -0.1975 0.9803 -0.0000
vn 0.0000 -0.1792 -0.9838
vn 0.0000 0.9986 -0.0524
usemtl Material
s off
f 21/1/1 32/2/1 25/3/1
f 48/4/2 38/5/2 31/6/2
f 30/7/3 34/8/3 27/9/3
f 6/10/4 39/11/4 36/12/4
f 41/13/5 47/14/5 44/15/5
f 62/16/6 26/17/6 71/18/6
f 29/19/6 8/20/6 5/21/6
f 40/22/7 58/23/7 55/24/7
f 52/25/8 11/26/8 57/27/8
f 49/28/9 10/29/9 54/30/9
f 61/31/10 53/32/10 64/33/10
f 14/34/11 67/35/11 66/36/11
f 15/37/12 70/38/12 69/39/12
f 51/40/13 12/41/13 9/42/13
f 68/43/5 4/44/5 33/45/5
f 65/46/4 3/47/4 24/48/4
f 63/49/3 2/50/3 1/51/3
f 13/52/14 20/53/14 16/54/14
f 21/1/1 23/55/1 32/2/1
f 48/4/2 43/56/2 38/5/2
f 30/7/3 37/57/3 34/8/3
f 6/10/4 42/58/4 39/11/4
f 41/13/5 7/59/5 47/14/5
f 62/16/6 22/60/6 26/17/6
f 29/19/6 46/61/6 8/20/6
f 40/22/7 45/62/7 58/23/7
f 52/25/8 35/63/8 11/26/8
f 49/28/9 28/64/9 10/29/9
f 61/31/10 50/65/10 53/32/10
f 14/34/11 56/66/11 67/35/11
f 15/37/12 59/67/12 70/38/12
f 51/40/13 60/68/13 12/41/13
f 68/43/5 72/69/5 4/44/5
f 65/46/4 19/70/4 3/47/4
f 63/49/3 18/71/3 2/50/3
f 13/52/14 17/72/14 20/53/14
